<svg width="103" height="102" viewBox="0 0 103 102" fill="none" xmlns="http://www.w3.org/2000/svg">
<path d="M93.042 12.6523H77.9817C77.68 12.6523 77.3908 12.7722 77.1775 12.9855C76.9642 13.1987 76.8444 13.488 76.8444 13.7896C76.8444 13.9834 76.9056 14.1568 76.9897 14.3149V22.9798C76.9901 23.2974 76.9278 23.6119 76.8064 23.9053C76.685 24.1988 76.507 24.4654 76.2824 24.69C76.0579 24.9145 75.7913 25.0925 75.4978 25.2139C75.2044 25.3353 74.8899 25.3976 74.5723 25.3972H69.8854C69.5907 25.3972 69.2989 25.3392 69.0267 25.2264C68.7544 25.1137 68.507 24.9484 68.2987 24.74C68.0903 24.5316 67.925 24.2842 67.8122 24.012C67.6995 23.7397 67.6414 23.4479 67.6414 23.1532V14.4552C67.791 14.265 67.8751 14.0315 67.8811 13.7896C67.8815 13.6402 67.8523 13.4922 67.7952 13.354C67.7382 13.2159 67.6544 13.0904 67.5488 12.9847C67.4431 12.879 67.3176 12.7953 67.1794 12.7382C67.0413 12.6812 66.8933 12.652 66.7438 12.6523H36.3861C36.0844 12.6523 35.7952 12.7722 35.5819 12.9855C35.3686 13.1987 35.2488 13.488 35.2488 13.7896C35.2488 13.9656 35.2972 14.1262 35.3686 14.2767V23.041C35.3686 23.3508 35.3076 23.6575 35.1891 23.9437C35.0705 24.2299 34.8968 24.4899 34.6778 24.7089C34.4587 24.928 34.1987 25.1017 33.9125 25.2202C33.6264 25.3388 33.3196 25.3998 33.0099 25.3998H28.8483C28.2166 25.3998 27.6108 25.1489 27.1642 24.7022C26.7175 24.2556 26.4666 23.6498 26.4666 23.0181V14.3404C26.5681 14.1744 26.6235 13.9843 26.6272 13.7896C26.6276 13.6402 26.5984 13.4922 26.5413 13.354C26.4843 13.2159 26.4005 13.0904 26.2949 12.9847C26.1892 12.879 26.0637 12.7953 25.9255 12.7382C25.7874 12.6812 25.6394 12.652 25.4899 12.6523H9.62127C8.95103 12.653 8.3084 12.9194 7.83422 13.3931C7.36005 13.8668 7.09302 14.5092 7.09167 15.1794V90.4911C7.09167 91.8885 8.22642 93.0232 9.62127 93.0232H93.042C93.7127 93.0219 94.3554 92.7545 94.8292 92.2798C95.3029 91.8051 95.569 91.1618 95.569 90.4911V15.1794C95.5677 14.5096 95.301 13.8676 94.8274 13.394C94.3538 12.9204 93.7118 12.6537 93.042 12.6523ZM93.042 90.7486H9.62127C9.58757 90.7486 9.5542 90.742 9.5231 90.729C9.49199 90.716 9.46377 90.697 9.44005 90.6731C9.41634 90.6491 9.39761 90.6207 9.38495 90.5895C9.37228 90.5582 9.36594 90.5248 9.36627 90.4911V33.6949H93.2944V90.4885C93.2951 90.5222 93.2891 90.5557 93.2767 90.5871C93.2644 90.6185 93.2459 90.6471 93.2225 90.6713C93.199 90.6954 93.171 90.7147 93.14 90.728C93.109 90.7413 93.0757 90.7483 93.042 90.7486Z" fill="#9F4289"/>
<path d="M31.2249 22.8068C31.8522 22.8068 32.3622 22.2968 32.3622 21.6695V6.3746C32.3622 6.22525 32.3328 6.07736 32.2756 5.93938C32.2185 5.8014 32.1347 5.67602 32.0291 5.57041C31.9235 5.4648 31.7981 5.38103 31.6601 5.32388C31.5221 5.26672 31.3742 5.2373 31.2249 5.2373C31.0755 5.2373 30.9276 5.26672 30.7897 5.32388C30.6517 5.38103 30.5263 5.4648 30.4207 5.57041C30.3151 5.67602 30.2313 5.8014 30.1742 5.93938C30.117 6.07736 30.0876 6.22525 30.0876 6.3746V21.6721C30.0876 22.2994 30.5976 22.8068 31.2249 22.8068ZM72.4176 22.8068C73.0449 22.8068 73.5549 22.2968 73.5549 21.6695V6.3746C73.5549 6.22525 73.5255 6.07736 73.4683 5.93938C73.4112 5.8014 73.3274 5.67602 73.2218 5.57041C73.1162 5.4648 72.9908 5.38103 72.8528 5.32388C72.7148 5.26672 72.5669 5.2373 72.4176 5.2373C72.2682 5.2373 72.1203 5.26672 71.9824 5.32388C71.8444 5.38103 71.719 5.4648 71.6134 5.57041C71.5078 5.67602 71.424 5.8014 71.3669 5.93938C71.3097 6.07736 71.2803 6.22525 71.2803 6.3746V21.6721C71.2803 22.2994 71.7877 22.8068 72.4176 22.8068Z" fill="#9F4289"/>
<path d="M25.3471 50.9001C28.8088 50.9001 31.615 48.0938 31.615 44.6322C31.615 41.1705 28.8088 38.3643 25.3471 38.3643C21.8855 38.3643 19.0792 41.1705 19.0792 44.6322C19.0792 48.0938 21.8855 50.9001 25.3471 50.9001Z" fill="#9F4289"/>
<path d="M43.3603 50.9001C46.822 50.9001 49.6282 48.0938 49.6282 44.6322C49.6282 41.1705 46.822 38.3643 43.3603 38.3643C39.8986 38.3643 37.0924 41.1705 37.0924 44.6322C37.0924 48.0938 39.8986 50.9001 43.3603 50.9001Z" fill="#9F4289"/>
<path d="M61.371 50.9001C64.8327 50.9001 67.6389 48.0938 67.6389 44.6322C67.6389 41.1705 64.8327 38.3643 61.371 38.3643C57.9093 38.3643 55.1031 41.1705 55.1031 44.6322C55.1031 48.0938 57.9093 50.9001 61.371 50.9001Z" fill="#9F4289"/>
<path d="M25.3471 68.3551C28.8088 68.3551 31.615 65.5489 31.615 62.0872C31.615 58.6256 28.8088 55.8193 25.3471 55.8193C21.8855 55.8193 19.0792 58.6256 19.0792 62.0872C19.0792 65.5489 21.8855 68.3551 25.3471 68.3551Z" fill="#9F4289"/>
<path d="M43.3603 68.3551C46.822 68.3551 49.6282 65.5489 49.6282 62.0872C49.6282 58.6256 46.822 55.8193 43.3603 55.8193C39.8986 55.8193 37.0924 58.6256 37.0924 62.0872C37.0924 65.5489 39.8986 68.3551 43.3603 68.3551Z" fill="#9F4289"/>
<path d="M61.371 68.3551C64.8327 68.3551 67.6389 65.5489 67.6389 62.0872C67.6389 58.6256 64.8327 55.8193 61.371 55.8193C57.9093 55.8193 55.1031 58.6256 55.1031 62.0872C55.1031 65.5489 57.9093 68.3551 61.371 68.3551Z" fill="#9F4289"/>
<path d="M25.3471 85.8092C28.8088 85.8092 31.615 83.003 31.615 79.5413C31.615 76.0797 28.8088 73.2734 25.3471 73.2734C21.8855 73.2734 19.0792 76.0797 19.0792 79.5413C19.0792 83.003 21.8855 85.8092 25.3471 85.8092Z" fill="#9F4289"/>
<path d="M43.3603 85.8092C46.822 85.8092 49.6282 83.003 49.6282 79.5413C49.6282 76.0797 46.822 73.2734 43.3603 73.2734C39.8986 73.2734 37.0924 76.0797 37.0924 79.5413C37.0924 83.003 39.8986 85.8092 43.3603 85.8092Z" fill="#9F4289"/>
<path d="M61.371 85.8092C64.8327 85.8092 67.6389 83.003 67.6389 79.5413C67.6389 76.0797 64.8327 73.2734 61.371 73.2734C57.9093 73.2734 55.1031 76.0797 55.1031 79.5413C55.1031 83.003 57.9093 85.8092 61.371 85.8092Z" fill="#9F4289"/>
<path d="M78.9609 50.9001C82.4226 50.9001 85.2288 48.0938 85.2288 44.6322C85.2288 41.1705 82.4226 38.3643 78.9609 38.3643C75.4992 38.3643 72.693 41.1705 72.693 44.6322C72.693 48.0938 75.4992 50.9001 78.9609 50.9001Z" fill="#9F4289"/>
<path d="M78.9609 68.3551C82.4226 68.3551 85.2288 65.5489 85.2288 62.0872C85.2288 58.6256 82.4226 55.8193 78.9609 55.8193C75.4992 55.8193 72.693 58.6256 72.693 62.0872C72.693 65.5489 75.4992 68.3551 78.9609 68.3551Z" fill="#9F4289"/>
<path d="M78.9609 85.8092C82.4226 85.8092 85.2288 83.003 85.2288 79.5413C85.2288 76.0797 82.4226 73.2734 78.9609 73.2734C75.4992 73.2734 72.693 76.0797 72.693 79.5413C72.693 83.003 75.4992 85.8092 78.9609 85.8092Z" fill="#9F4289"/>
</svg>
