<svg viewBox="0 0 16 16" xmlns="http://www.w3.org/2000/svg">
    <path
        d="M0.593278 10.9691L3.96883 9.5313C4.42661 9.36537 4.8118 9.45945 5.12439 9.81352L6.49994 11.4691C7.58291 10.9476 8.5518 10.2602 9.40661 9.40686C10.2599 8.55204 10.9474 7.58315 11.4688 6.50019L9.81328 5.12463C9.4592 4.81204 9.36513 4.42686 9.53106 3.96908L10.9688 0.593522C11.2192 0.135744 11.594 -0.0516631 12.0933 0.0312999L15.2511 0.7513C15.7296 0.896485 15.9792 1.21871 15.9999 1.71797C15.9792 4.36389 15.3229 6.76019 14.0311 8.90686C12.7599 11.052 11.0518 12.7706 8.90661 14.0624C6.75995 15.3335 4.35328 15.9794 1.68661 16.0002C1.20809 15.9794 0.896241 15.7298 0.751056 15.2513L0.0310557 12.0935C-0.0519072 11.5943 0.1355 11.2194 0.593278 10.9691Z" />
</svg>