<svg width="107" height="107" viewBox="0 0 107 107" fill="none" xmlns="http://www.w3.org/2000/svg">
<path d="M53.25 31.5625C55.7008 31.5625 57.6875 29.5758 57.6875 27.125C57.6875 24.6742 55.7008 22.6875 53.25 22.6875C50.7992 22.6875 48.8125 24.6742 48.8125 27.125C48.8125 29.5758 50.7992 31.5625 53.25 31.5625Z" fill="#9F4289"/>
<path d="M26.625 75.9375H79.875V84.8125H26.625V75.9375ZM44.375 52.9956L56.7645 65.394L74.2128 47.9324L79.875 53.75V36H62.125L67.9381 41.6578L56.7601 52.8359L44.375 40.4375L26.625 58.1875L32.8996 64.4621L44.375 52.9956Z" fill="#9F4289"/>
<path d="M84.3125 13.8128H69.6776C69.2381 13.1594 68.7641 12.5299 68.2576 11.9269L68.2132 11.8736C64.9518 8.07766 60.3653 5.66856 55.3889 5.13749C53.9754 4.87084 52.5246 4.87084 51.1111 5.13749C46.1347 5.66856 41.5482 8.07766 38.2868 11.8736L38.2424 11.9269C37.736 12.5284 37.262 13.1565 36.8224 13.8084V13.8128H22.1875C18.6579 13.8163 15.2738 15.22 12.778 17.7158C10.2822 20.2117 8.87852 23.5957 8.875 27.1253V89.2503C8.87852 92.7799 10.2822 96.164 12.778 98.6598C15.2738 101.156 18.6579 102.559 22.1875 102.563H84.3125C87.8421 102.559 91.2262 101.156 93.722 98.6598C96.2178 96.164 97.6215 92.7799 97.625 89.2503V27.1253C97.6215 23.5957 96.2178 20.2117 93.722 17.7158C91.2262 15.22 87.8421 13.8163 84.3125 13.8128ZM88.75 89.2503C88.75 90.4272 88.2825 91.5559 87.4503 92.3881C86.6181 93.2203 85.4894 93.6878 84.3125 93.6878H22.1875C21.0106 93.6878 19.8819 93.2203 19.0497 92.3881C18.2175 91.5559 17.75 90.4272 17.75 89.2503V27.1253C17.75 25.9484 18.2175 24.8197 19.0497 23.9875C19.8819 23.1553 21.0106 22.6878 22.1875 22.6878H42.3781C42.8874 20.18 44.2479 17.9253 46.2293 16.3058C48.2107 14.6864 50.691 13.8017 53.25 13.8017C55.809 13.8017 58.2893 14.6864 60.2707 16.3058C62.2521 17.9253 63.6126 20.18 64.1219 22.6878H84.3125C85.4894 22.6878 86.6181 23.1553 87.4503 23.9875C88.2825 24.8197 88.75 25.9484 88.75 27.1253V89.2503Z" fill="#9F4289"/>
</svg>
