<svg version="1.0" id="Layer_1" xmlns="http://www.w3.org/2000/svg"
	xmlns:xlink="http://www.w3.org/1999/xlink" x="0px" y="0px"
	width="23.954px" height="24.074px" viewBox="0 0 23.954 24.074"
	enable-background="new 0 0 23.954 24.074" xml:space="preserve">
<path d="M18.591,14.104l-3.631-1.815c-0.096-0.095-0.189-0.095-0.382-0.095c-0.096,0-0.19,0-0.286,0.095l-1.72,1.146
	c-0.859-0.478-1.624-1.146-2.102-2.102l1.146-1.72c0.096-0.096,0.096-0.191,0.096-0.287s0-0.191-0.096-0.382L9.897,5.41
	c0-0.095-0.095-0.191-0.191-0.287C9.515,5.028,9.419,5.028,9.324,5.028c-1.146,0-2.198,0.478-3.057,1.242
	c-0.764,0.86-1.242,1.911-1.242,3.057c0,2.58,1.051,5.063,2.866,6.878c1.815,1.815,4.299,2.867,6.879,2.867
	c1.146,0,2.196-0.479,3.056-1.243c0.765-0.765,1.242-1.911,1.242-3.057c0-0.097,0-0.287-0.096-0.383
	C18.781,14.199,18.687,14.199,18.591,14.104z M14.674,17.639c-2.197,0-4.299-0.86-5.923-2.484c-1.624-1.624-2.483-3.63-2.483-5.923
	c0-0.669,0.286-1.433,0.764-1.911c0.478-0.477,1.146-0.859,1.815-0.955l1.433,2.866l-1.146,1.815
	c-0.095,0.096-0.095,0.191-0.095,0.287c0,0.095,0,0.191,0.095,0.287c0.573,1.433,1.815,2.674,3.248,3.249
	c0.096,0,0.191,0.095,0.287,0.095c0.095,0,0.191,0,0.286-0.095l1.72-1.147l2.865,1.434c-0.095,0.668-0.477,1.338-0.954,1.815
	C16.106,17.351,15.438,17.639,14.674,17.639z M11.999,0.537c-2.006,0-3.917,0.478-5.637,1.529c-1.72,1.051-3.153,2.389-4.203,4.108
	c-1.051,1.72-1.625,3.631-1.625,5.637c0,2.007,0.478,3.918,1.434,5.732L0.63,21.46c-0.096,0.19-0.096,0.478-0.096,0.764
	s0.191,0.573,0.382,0.765c0.287,0.191,0.573,0.382,0.86,0.478s0.573,0.096,0.86,0l3.917-1.338c1.529,0.86,3.249,1.338,4.968,1.338
	c1.72,0.096,3.438-0.286,5.063-0.956c1.623-0.669,3.058-1.719,4.107-3.057c1.146-1.337,1.911-2.866,2.388-4.585
	c0.383-1.72,0.478-3.44,0.097-5.16c-0.383-1.719-1.146-3.343-2.197-4.681s-2.389-2.58-3.917-3.344
	C15.438,0.919,13.718,0.537,11.999,0.537z M11.999,21.795c-1.755,0-3.418-0.462-4.896-1.293c-0.092-0.094-0.185-0.094-0.37-0.094
	c-0.091,0-0.185,0-0.185,0l-4.064,1.387H2.391c0,0-0.092,0-0.092-0.092L2.207,21.61v-0.094l1.386-4.063c0-0.093,0-0.186,0-0.278
	c0-0.091,0-0.184-0.093-0.276c-1.108-1.848-1.478-4.064-1.201-6.19C2.576,8.583,3.592,6.551,5.07,5.073
	c1.478-1.478,3.51-2.494,5.636-2.771c2.126-0.277,4.342,0.186,6.19,1.201c1.847,1.109,3.325,2.772,4.156,4.712
	c0.832,2.033,1.017,4.157,0.371,6.284c-0.556,2.123-1.756,3.879-3.511,5.265C16.248,21.056,14.124,21.795,11.999,21.795z"/>
</svg>