<svg version="1.0" id="Layer_1" xmlns="http://www.w3.org/2000/svg"
    xmlns:xlink="http://www.w3.org/1999/xlink" x="0px" y="0px"
    width="24px" height="16.8px" viewBox="0 3.6 24 16.8" enable-background="new 0 3.6 24 16.8"
    xml:space="preserve">
<g>
	<path d="M19.8,3.6H4.2C3.1,3.6,2,4,1.3,4.7C0.5,5.5,0,6.6,0,7.7v8.7c0,1.1,0.5,2.1,1.3,2.9C2,20,3.1,20.4,4.2,20.4h15.6
		c1.1,0,2.2-0.4,2.9-1.2c0.8-0.8,1.2-1.8,1.3-2.9V7.7c0-1.1-0.5-2.1-1.3-2.9C22,4,20.9,3.6,19.8,3.6z M22.3,16.4
		c0,0.6-0.3,1.3-0.7,1.7c-0.5,0.5-1.1,0.7-1.7,0.7H4.2c-0.6,0-1.3-0.2-1.7-0.7C2,17.6,1.7,17,1.7,16.4V7.7C1.7,7,2,6.4,2.5,5.9
		s1.1-0.7,1.7-0.7h15.6c0.6,0,1.3,0.2,1.7,0.7s0.7,1.1,0.7,1.7L22.3,16.4L22.3,16.4z"/>
	<path d="M16.6,11.3l-6.4-4.1C10.1,7.1,10,7.1,9.8,7.1c-0.2,0-0.3,0-0.4,0.1C9.2,7.3,9.1,7.4,9,7.5c0,0.1-0.1,0.3-0.1,0.4v8.2
		c0,0.2,0,0.3,0.1,0.4s0.2,0.2,0.3,0.3c0.1,0.1,0.3,0.1,0.4,0.1c0.2,0,0.3-0.1,0.4-0.1l6.4-4.1c0.1-0.1,0.2-0.2,0.3-0.3
		C17,12.3,17,12.1,17,12s0-0.3-0.1-0.4C16.8,11.5,16.7,11.4,16.6,11.3L16.6,11.3z M10.6,14.5v-5l3.9,2.5L10.6,14.5z"/>
</g>
</svg>