<svg width="96" height="90" viewBox="0 0 96 90" fill="none" xmlns="http://www.w3.org/2000/svg">
<path d="M29.9575 52.3687L31.998 49.2225L29.9575 52.3687C31.0393 53.0704 32.2383 53.8552 33.5549 54.7235L35.5636 51.6779L33.5549 54.7235C35.2636 55.8505 37.3816 56.7675 39.7866 57.5357C42.3586 58.3574 44.9756 58.7754 47.625 58.7754C50.2744 58.7754 52.8914 58.3574 55.4634 57.5357C57.8684 56.7675 59.9864 55.8505 61.6951 54.7235C63.0117 53.8552 64.2107 53.0704 65.2925 52.3687C65.5306 52.2143 65.7331 52.0889 65.9025 51.989C65.9423 51.9656 65.9793 51.9441 66.0138 51.9244C67.3513 51.9838 68.5172 52.2334 69.5412 52.6371C70.8165 53.1399 71.8044 53.7747 72.5714 54.5055C73.4345 55.3279 74.2426 56.3633 74.9775 57.6503C75.7468 58.9978 76.3507 60.365 76.7971 61.7536C77.2694 63.2229 77.6697 64.8461 77.9913 66.6298C78.3185 68.4443 78.5306 70.102 78.6354 71.608C78.7449 73.18 78.8 74.7969 78.8 76.459C78.8 79.5897 77.8766 81.648 76.3489 83.0959C74.768 84.5942 72.5531 85.5 69.3043 85.5H25.9457C22.6969 85.5 20.482 84.5942 18.9011 83.0959C17.3734 81.648 16.45 79.5897 16.45 76.459C16.45 74.7969 16.5051 73.18 16.6146 71.608C16.7194 70.102 16.9315 68.4443 17.2587 66.6298C17.5803 64.8461 17.9806 63.2229 18.4529 61.7536C18.8993 60.365 19.5032 58.9978 20.2725 57.6503C21.0074 56.3633 21.8155 55.3279 22.6786 54.5055L20.5439 52.2651L22.6787 54.5055C23.4456 53.7747 24.4335 53.1399 25.7088 52.6371C26.7328 52.2334 27.8987 51.9838 29.2362 51.9244C29.2707 51.9441 29.3077 51.9656 29.3475 51.989C29.5169 52.0889 29.7194 52.2143 29.9575 52.3687ZM4.96919 46.278L2.77813 49.3213L4.96918 46.278C4.22948 45.7454 3.75 45.0056 3.75 43.469C3.75 37.7758 4.2654 33.934 5.07419 31.6419C5.38297 30.7668 5.68054 30.2764 5.88411 30.0195C6.05878 30.1134 6.2581 30.2225 6.48359 30.3482C7.96914 31.1764 9.79069 31.9561 11.8865 32.7037C14.243 33.5443 16.6363 33.9835 19.05 33.9835C19.9346 33.9835 20.8149 33.933 21.6905 33.8326C21.8507 36.7298 22.4852 39.5031 23.583 42.1377C20.1901 43.1324 17.1821 44.9496 14.6141 47.5714H9.62422C7.54657 47.5714 6.06986 47.0704 4.96919 46.278ZM6.15156 29.7857C6.13882 29.7857 6.12621 29.7856 6.11375 29.7855C6.1231 29.7809 6.1282 29.782 6.13512 29.7836C6.13941 29.7846 6.14441 29.7857 6.15156 29.7857ZM71.667 42.1377C72.7648 39.5031 73.3993 36.7298 73.5595 33.8326C74.4351 33.933 75.3154 33.9835 76.2 33.9835C78.6137 33.9835 81.007 33.5443 83.3635 32.7037C85.4593 31.9561 87.2809 31.1764 88.7664 30.3482C88.9919 30.2225 89.1912 30.1134 89.3659 30.0195C89.5695 30.2764 89.867 30.7668 90.1758 31.6419C90.9846 33.934 91.5 37.7758 91.5 43.469C91.5 45.0056 91.0205 45.7454 90.2808 46.278C89.1801 47.0704 87.7034 47.5714 85.6258 47.5714H80.6359C78.0679 44.9496 75.0599 43.1324 71.667 42.1377ZM89.1149 29.7836C89.1218 29.782 89.1269 29.7809 89.1362 29.7855C89.1238 29.7856 89.1112 29.7857 89.0984 29.7857C89.1056 29.7857 89.1106 29.7846 89.1149 29.7836ZM28 13.3929C28 15.8821 27.1595 17.9063 25.3836 19.6741C23.6072 21.4426 21.5659 22.2857 19.05 22.2857C16.5341 22.2857 14.4928 21.4426 12.7164 19.6741C10.9405 17.9063 10.1 15.8821 10.1 13.3929C10.1 10.9036 10.9405 8.87944 12.7164 7.11158C14.4928 5.34316 16.5341 4.5 19.05 4.5C21.5659 4.5 23.6072 5.34317 25.3836 7.11158C27.1595 8.87944 28 10.9036 28 13.3929ZM62.925 32.3571C62.925 36.5913 61.4644 40.1054 58.4483 43.1079C55.4316 46.1109 51.8938 47.5714 47.625 47.5714C43.3562 47.5714 39.8184 46.1109 36.8017 43.1079C33.7856 40.1054 32.325 36.5913 32.325 32.3571C32.325 28.1229 33.7856 24.6089 36.8017 21.6064C39.8184 18.6033 43.3562 17.1429 47.625 17.1429C51.8938 17.1429 55.4316 18.6033 58.4483 21.6064C61.4644 24.6089 62.925 28.1229 62.925 32.3571ZM85.15 13.3929C85.15 15.8821 84.3095 17.9063 82.5336 19.6741C80.7572 21.4425 78.7159 22.2857 76.2 22.2857C73.6841 22.2857 71.6428 21.4426 69.8664 19.6741C68.0905 17.9063 67.25 15.8821 67.25 13.3929C67.25 10.9036 68.0905 8.87944 69.8664 7.11158C71.6428 5.34316 73.6841 4.5 76.2 4.5C78.7159 4.5 80.7572 5.34317 82.5336 7.11158C84.3095 8.87944 85.15 10.9036 85.15 13.3929Z" stroke="#9F4289" stroke-width="7.5"/>
</svg>
