<svg viewBox="0 0 16 16" xmlns="http://www.w3.org/2000/svg">
    <path
        d="M14.5 2C14.9163 2.02074 15.2704 2.16667 15.5622 2.43778C15.8333 2.72963 15.9793 3.0837 16 3.5C15.9793 4.00074 15.7815 4.3963 15.4067 4.68667L8.59333 9.81333C8.19778 10.0622 7.80222 10.0622 7.40667 9.81333L0.593333 4.68667C0.218519 4.3963 0.0207407 4.00074 0 3.5C0.0207407 3.0837 0.166667 2.72963 0.437778 2.43778C0.72963 2.16667 1.0837 2.02074 1.5 2H14.5ZM6.81333 10.5933C7.16741 10.8644 7.56296 11 8 11C8.43704 11 8.83259 10.8644 9.18667 10.5933L16 5.5V12C15.9793 12.563 15.7815 13.0319 15.4067 13.4067C15.0319 13.7815 14.563 13.9793 14 14H2C1.43704 13.9793 0.968148 13.7815 0.593333 13.4067C0.218519 13.0319 0.0207407 12.563 0 12V5.5L6.81333 10.5933Z" />
</svg>