<svg version="1.0" xmlns="http://www.w3.org/2000/svg" viewBox="0 0 24 24">
    <path
        d="M20,11.2c0-1.2-0.2-2.3-0.7-3.4c-0.5-1.1-1.1-2.1-2-2.9c-1.8-1.7-4.1-2.6-6.5-2.6C8.3,2.3,6,3.2,4.2,4.9
	c-0.9,0.8-1.5,1.8-2,2.9C1.8,8.8,1.5,10,1.6,11.2c0,1.2,0.2,2.3,0.7,3.4c0.5,1.1,1.1,2.1,2,2.9c1.7,1.7,4.1,2.6,6.5,2.6
	c2.4,0,4.8-0.9,6.5-2.6c0.9-0.8,1.6-1.8,2-2.9S20,12.4,20,11.2L20,11.2z M23.1,23.3c-0.1,0-0.2,0-0.3-0.1c-0.1,0-0.2-0.1-0.3-0.2
	l-4.4-4.2c-2.1,1.9-4.8,2.9-7.6,2.9c-2.8,0-5.5-1.1-7.5-3.1c-1-1-1.8-2.1-2.3-3.4c-0.5-1.3-0.8-2.7-0.8-4c0-1.4,0.3-2.7,0.8-4
	c0.5-1.3,1.3-2.4,2.3-3.4c2-2,4.8-3.1,7.6-3.1c2.8,0,5.6,1.1,7.6,3.1c1.9,1.8,3,4.2,3.1,6.7c0.2,2.6-0.6,5.1-2.3,7.1l4.4,4.2
	c0.1,0.1,0.2,0.3,0.3,0.4c0,0.2,0,0.3,0,0.5c-0.1,0.2-0.2,0.3-0.3,0.4C23.5,23.2,23.3,23.3,23.1,23.3L23.1,23.3z M7.6,14.3
	c0.1,0.1,0.1,0.2,0.2,0.2c0,0.1,0.1,0.2,0.1,0.3c0,0.1,0,0.2-0.1,0.3c0,0.1-0.1,0.2-0.2,0.2c-0.1,0.1-0.2,0.1-0.3,0.2
	c-0.1,0-0.2,0.1-0.3,0.1s-0.2,0-0.3-0.1c-0.1,0-0.2-0.1-0.3-0.2C5.8,14.7,5.3,13.9,5,13c-0.3-0.9-0.4-1.9-0.2-2.8
	c0-0.1,0.1-0.2,0.1-0.3C5,9.8,5.1,9.7,5.2,9.6c0.1-0.1,0.2-0.1,0.3-0.1c0.1,0,0.2,0,0.3,0c0.1,0,0.2,0.1,0.3,0.1
	c0.1,0.1,0.2,0.1,0.2,0.2c0.1,0.1,0.1,0.2,0.1,0.3c0,0.1,0,0.2,0,0.3c-0.1,0.7-0.1,1.4,0.1,2.1C6.7,13.2,7.1,13.8,7.6,14.3L7.6,14.3
	z" />
</svg>