<svg version="1.0" id="Layer_1" xmlns="http://www.w3.org/2000/svg"
	xmlns:xlink="http://www.w3.org/1999/xlink" x="0px" y="0px"
	width="24px" height="19.3px" viewBox="0 2.3 24 19.3" enable-background="new 0 2.3 24 19.3"
	xml:space="preserve">
<g>
	<path d="M23.8,5.1c-0.1-0.2-0.3-0.3-0.6-0.4c-0.2,0-0.5,0-0.7,0.1l-2.8,2c-0.1,0.1-0.2,0.2-0.3,0.3c-0.1,0.1-0.1,0.3-0.1,0.4
		c0,0.2,0,0.4,0,0.5c0,1.5-0.3,3.1-0.9,4.5c-0.6,1.4-1.4,2.7-2.5,3.8c-1.1,1.1-2.4,1.9-3.8,2.5c-1.4,0.6-3,0.9-4.5,0.9
		s-3-0.3-4.3-0.8l4.3-1.2c0.2-0.1,0.4-0.2,0.5-0.4s0.1-0.5,0.1-0.7c-0.1-0.2-0.2-0.4-0.4-0.5c-0.1-0.1-0.3-0.1-0.6,0l-6.6,1.8
		c-0.2,0-0.3,0.1-0.4,0.3C0.1,18.3,0,18.5,0,18.6c0,0.2,0,0.3,0.1,0.5c0.1,0.2,0.2,0.3,0.3,0.4c2.2,1.4,4.7,2.1,7.3,2.1
		c1.9,0,3.8-0.3,5.5-1.1s3.3-1.9,4.5-3.3c2.2-2.5,3.4-5.7,3.5-9.1V8l2.4-1.7c0.2,0,0.3-0.3,0.4-0.5C24,5.6,24,5.3,23.8,5.1z"/>
	<path d="M2,4.8l9.1,4.6c0.2,0.1,0.3,0.1,0.5,0.1c0.2,0,0.3-0.1,0.5-0.2c0.1-0.1,0.2-0.2,0.3-0.4c0.1-0.2,0.1-0.3,0-0.5
		c-0.2-0.8-0.1-1.5,0.2-2.3c0.3-0.7,0.9-1.3,1.5-1.7C14.8,4,15.6,3.9,16.3,4s1.5,0.5,2,1.1c0.1,0.1,0.3,0.2,0.5,0.3
		c0.2,0,0.4,0,0.5,0l2.8-1c0.1,0,0.2-0.1,0.3-0.2c0.1-0.1,0.2-0.2,0.2-0.3s0.1-0.2,0.1-0.3s0-0.2-0.1-0.3c0-0.1-0.1-0.2-0.2-0.3
		c-0.1-0.1-0.2-0.2-0.3-0.2c-0.1-0.1-0.2-0.1-0.3-0.1c-0.1,0-0.2,0-0.3,0.1l-2.3,0.8c-0.7-0.6-1.6-1-2.6-1.2c-1-0.2-1.9,0-2.9,0.3
		c-0.9,0.4-1.7,1-2.3,1.8s-0.9,1.7-1,2.7l-7.6-4c-0.1,0-0.2-0.1-0.3-0.1s-0.2,0-0.4,0C2,3.2,1.9,3.3,1.8,3.4c-0.1,0-0.1,0.1-0.2,0.2
		S1.5,3.9,1.5,4s0,0.2,0,0.4c0,0.1,0.1,0.2,0.2,0.3C1.8,4.7,1.9,4.8,2,4.8L2,4.8z"/>
	<path d="M1.5,10.3l2,0.6c0.1,0,0.2,0,0.4,0c0.1,0,0.2-0.1,0.3-0.1c0.1-0.1,0.2-0.1,0.3-0.2s0.1-0.2,0.2-0.3c0-0.1,0-0.2,0-0.4
		c0-0.1-0.1-0.2-0.1-0.3C4.5,9.4,4.4,9.3,4.3,9.2C4.2,9.2,4.1,9.1,4,9.1L2,8.5c-0.1,0-0.2,0-0.4,0c-0.1,0-0.2,0.1-0.3,0.1
		c-0.1,0-0.2,0.1-0.2,0.2c0,0.1-0.2,0.2-0.2,0.4c0,0.1,0,0.2,0,0.4C0.9,9.7,1,9.8,1,9.9c0,0,0.1,0.1,0.2,0.2
		C1.3,10.2,1.4,10.2,1.5,10.3z"/>
	<path d="M3.3,13c-0.2,0-0.5,0.1-0.6,0.3c-0.2,0.2-0.3,0.4-0.3,0.6c0,0.2,0.1,0.5,0.3,0.6c0.2,0.2,0.4,0.3,0.6,0.3l0,0l2-0.1
		c0.1,0,0.2,0,0.3-0.1c0.1,0,0.2-0.1,0.3-0.2C6,14.3,6,14.2,6.1,14.1c0-0.1,0.1-0.2,0.1-0.3c0-0.1,0-0.2-0.1-0.3
		c0-0.1-0.1-0.2-0.2-0.3c-0.1-0.1-0.2-0.1-0.3-0.2c-0.1,0-0.2-0.1-0.3-0.1L3.3,13z"/>
</g>
</svg>